<svg enable-background="new 0 0 64 64" height="64" viewBox="0 0 64 64" width="64" xmlns="http://www.w3.org/2000/svg"><path d="m54.99 18.5c2.77 0 5 2.24 5 5v17c0 2.76-2.23 5-5 5h-3c2.77 0 5-2.24 5-5v-17c0-2.76-2.23-5-5-5z" fill="#ed5565"/><path d="m53.99 23.5v17c0 2.76-2.23 5-5 5-2.76 0-5-2.24-5-5v-6h5 .01c1.11-.01 1.99-.9 1.99-2v-.99c0-1.109-.891-2-2-2v-.01h-5v-6c0-2.76 2.24-5 5-5 2.77 0 5 2.24 5 5z" fill="#ed5565"/><path d="m56.99 40.5c0 2.76-2.23 5-5 5h-3c2.77 0 5-2.24 5-5v-17c0-2.76-2.23-5-5-5h3c2.77 0 5 2.24 5 5z" fill="#da4453"/><path d="m59.99 23.5c0-2.76-2.23-5-5-5h3.01c2.76 0 5 2.24 5 5v17c0 2.76-2.24 5-5 5h-3.01c2.77 0 5-2.24 5-5z" fill="#da4453"/><path d="m11 23.5v17c0 2.76-2.24 5-5 5s-5-2.24-5-5v-8c0 1.1.891 2 2 2h3c1.109 0 2-.9 2-2v-.99c0-1.109-.891-2-2-2h-3c-1.109 0-2 .891-2 2v-8.01c0-2.76 2.24-5 5-5s5 2.24 5 5z" fill="#ed5565"/><path d="m50.99 31.51v.99c0 1.1-.88 1.99-1.99 2h-.01-5-23.99v-5h23.99 5v.01c1.11 0 2 .89 2 2z" fill="#ccd1d9"/><path d="m12 18.5c2.76 0 5 2.24 5 5v17c0 2.76-2.24 5-5 5h-3c2.76 0 5-2.24 5-5v-17c0-2.76-2.24-5-5-5z" fill="#ed5565"/><path d="m14 40.5c0 2.76-2.24 5-5 5h-3c2.76 0 5-2.24 5-5v-17c0-2.76-2.24-5-5-5h3c2.76 0 5 2.24 5 5z" fill="#da4453"/><path d="m15 18.5c2.76 0 5 2.24 5 5v6 5 6c0 2.76-2.24 5-5 5h-3c2.76 0 5-2.24 5-5v-17c0-2.76-2.24-5-5-5z" fill="#da4453"/><path d="m8 31.51v.99c0 1.1-.891 2-2 2h-3c1.1 0 2-.9 2-2v-.99c0-1.109-.9-2-2-2h3c1.109 0 2 .89 2 2z" fill="#ccd1d9"/><path d="m5 31.51v.99c0 1.1-.9 2-2 2-1.109 0-2-.9-2-2v-.99c0-1.109.891-2 2-2 1.1 0 2 .89 2 2z" fill="#e6e9ed"/><path d="m11.002 24.501c-.553 0-1-.447-1-1 0-2.206-1.794-4-4-4s-4 1.794-4 4c0 .553-.447 1-1 1s-1-.447-1-1c0-3.309 2.691-6 6-6s6 2.691 6 6c0 .553-.447 1-1 1z"/><path d="m8.002 32.509c-.553 0-1-.447-1-1 0-.552-.448-1-1-1-.553 0-1-.447-1-1s.447-1 1-1c1.654 0 3 1.346 3 3 0 .553-.447 1-1 1z"/><path d="m6.002 35.496c-.553 0-1-.447-1-1s.447-1 1-1c.552 0 1-.448 1-1 0-.553.447-1 1-1s1 .447 1 1c0 1.654-1.346 3-3 3z"/><path d="m6.002 46.5c-3.309 0-6-2.691-6-6 0-.553.447-1 1-1s1 .447 1 1c0 2.206 1.794 4 4 4s4-1.794 4-4c0-.553.447-1 1-1s1 .447 1 1c0 3.309-2.691 6-6 6z"/><path d="m11.002 41.5c-.553 0-1-.447-1-1v-16.999c0-.553.447-1 1-1s1 .447 1 1v16.999c0 .553-.447 1-1 1z"/><path d="m14.002 24.501c-.553 0-1-.447-1-1 0-2.206-1.794-4-4-4-.553 0-1-.447-1-1s.447-1 1-1c3.309 0 6 2.691 6 6 0 .553-.447 1-1 1z"/><path d="m9.002 46.5c-.553 0-1-.447-1-1s.447-1 1-1c2.206 0 4-1.794 4-4 0-.553.447-1 1-1s1 .447 1 1c0 3.309-2.691 6-6 6z"/><path d="m14.002 41.5c-.553 0-1-.447-1-1v-16.999c0-.553.447-1 1-1s1 .447 1 1v16.999c0 .553-.447 1-1 1z"/><path d="m17.002 24.501c-.553 0-1-.447-1-1 0-2.206-1.794-4-4-4-.553 0-1-.447-1-1s.447-1 1-1c3.309 0 6 2.691 6 6 0 .553-.447 1-1 1z"/><path d="m12.002 46.5c-.553 0-1-.447-1-1s.447-1 1-1c2.206 0 4-1.794 4-4 0-.553.447-1 1-1s1 .447 1 1c0 3.309-2.691 6-6 6z"/><path d="m17.002 41.5c-.553 0-1-.447-1-1v-16.999c0-.553.447-1 1-1s1 .447 1 1v16.999c0 .553-.447 1-1 1z"/><path d="m20 24.501c-.553 0-1-.447-1-1 0-2.206-1.794-4-4-4-.553 0-1-.447-1-1s.447-1 1-1c3.309 0 6 2.691 6 6 0 .553-.447 1-1 1z"/><path d="m15 46.5c-.553 0-1-.447-1-1s.447-1 1-1c2.206 0 4-1.794 4-4 0-.553.447-1 1-1s1 .447 1 1c0 3.309-2.691 6-6 6z"/><path d="m20 41.5c-.553 0-1-.447-1-1v-16.999c0-.553.447-1 1-1s1 .447 1 1v16.999c0 .553-.447 1-1 1z"/><path d="m1.002 41.5c-.553 0-1-.447-1-1v-16.999c0-.553.447-1 1-1s1 .447 1 1v16.999c0 .553-.447 1-1 1z"/><path d="m15 19.501h-8.998c-.553 0-1-.447-1-1s.447-1 1-1h8.998c.553 0 1 .447 1 1s-.447 1-1 1z"/><path d="m15 46.5h-8.998c-.553 0-1-.447-1-1s.447-1 1-1h8.998c.553 0 1 .447 1 1s-.447 1-1 1z"/><path d="m53.996 24.501c-.553 0-1-.447-1-1 0-2.206-1.794-4-4-4s-4 1.794-4 4c0 .553-.447 1-1 1s-1-.447-1-1c0-3.309 2.691-6 6-6s6 2.691 6 6c0 .553-.447 1-1 1z"/><path d="m48.996 46.5c-3.309 0-6-2.691-6-6 0-.553.447-1 1-1s1 .447 1 1c0 2.206 1.794 4 4 4s4-1.794 4-4c0-.553.447-1 1-1s1 .447 1 1c0 3.309-2.691 6-6 6z"/><path d="m53.996 41.5c-.553 0-1-.447-1-1v-16.999c0-.553.447-1 1-1s1 .447 1 1v16.999c0 .553-.447 1-1 1z"/><path d="m56.996 24.501c-.553 0-1-.447-1-1 0-2.206-1.794-4-4-4-.553 0-1-.447-1-1s.447-1 1-1c3.309 0 6 2.691 6 6 0 .553-.447 1-1 1z"/><path d="m51.996 46.5c-.553 0-1-.447-1-1s.447-1 1-1c2.206 0 4-1.794 4-4 0-.553.447-1 1-1s1 .447 1 1c0 3.309-2.691 6-6 6z"/><path d="m56.996 41.5c-.553 0-1-.447-1-1v-16.999c0-.553.447-1 1-1s1 .447 1 1v16.999c0 .553-.447 1-1 1z"/><path d="m59.996 24.501c-.553 0-1-.447-1-1 0-2.206-1.794-4-4-4-.553 0-1-.447-1-1s.447-1 1-1c3.309 0 6 2.691 6 6 0 .553-.447 1-1 1z"/><path d="m54.996 46.5c-.553 0-1-.447-1-1s.447-1 1-1c2.206 0 4-1.794 4-4 0-.553.447-1 1-1s1 .447 1 1c0 3.309-2.691 6-6 6z"/><path d="m59.996 41.5c-.553 0-1-.447-1-1v-16.999c0-.553.447-1 1-1s1 .447 1 1v16.999c0 .553-.447 1-1 1z"/><path d="m63 24.501c-.553 0-1-.447-1-1 0-2.206-1.794-4-4-4-.553 0-1-.447-1-1s.447-1 1-1c3.309 0 6 2.691 6 6 0 .553-.447 1-1 1z"/><path d="m58 46.5c-.553 0-1-.447-1-1s.447-1 1-1c2.206 0 4-1.794 4-4 0-.553.447-1 1-1s1 .447 1 1c0 3.309-2.691 6-6 6z"/><path d="m63 41.5c-.553 0-1-.447-1-1v-16.999c0-.553.447-1 1-1s1 .447 1 1v16.999c0 .553-.447 1-1 1z"/><path d="m43.996 30.506c-.553 0-1-.447-1-1v-6.005c0-.553.447-1 1-1s1 .447 1 1v6.005c0 .553-.447 1-1 1z"/><path d="m57.998 19.501h-9.002c-.553 0-1-.447-1-1s.447-1 1-1h9.002c.553 0 1 .447 1 1s-.447 1-1 1z"/><path d="m57.998 46.5h-9.002c-.553 0-1-.447-1-1s.447-1 1-1h9.002c.553 0 1 .447 1 1s-.447 1-1 1z"/><path d="m8.002 33.496c-.553 0-1-.447-1-1v-.987c0-.553.447-1 1-1s1 .447 1 1v.987c0 .553-.447 1-1 1z"/><path d="m50.996 32.509c-.553 0-1-.447-1-1 0-.552-.448-1-1-1-.553 0-1-.447-1-1s.447-1 1-1c1.654 0 3 1.346 3 3 0 .553-.447 1-1 1z"/><path d="m48.996 35.496c-.553 0-1-.447-1-1s.447-1 1-1c.552 0 1-.448 1-1 0-.553.447-1 1-1s1 .447 1 1c0 1.654-1.346 3-3 3z"/><path d="m50.996 33.496c-.553 0-1-.447-1-1v-.987c0-.553.447-1 1-1s1 .447 1 1v.987c0 .553-.447 1-1 1z"/><path d="m5 32.509c-.553 0-1-.447-1-1 0-.552-.448-1-1-1s-1 .448-1 1c0 .553-.447 1-1 1s-1-.447-1-1c0-1.654 1.346-3 3-3s3 1.346 3 3c0 .553-.447 1-1 1z"/><path d="m3 35.496c-1.654 0-3-1.346-3-3 0-.553.447-1 1-1s1 .447 1 1c0 .552.448 1 1 1s1-.448 1-1c0-.553.447-1 1-1s1 .447 1 1c0 1.654-1.346 3-3 3z"/><path d="m1 33.496c-.553 0-1-.447-1-1v-.987c0-.553.447-1 1-1s1 .447 1 1v.987c0 .553-.447 1-1 1z"/><path d="m49.002 30.506h-29.002c-.553 0-1-.447-1-1s.447-1 1-1h29.002c.553 0 1 .447 1 1s-.447 1-1 1z"/><path d="m49.002 35.501h-29.002c-.553 0-1-.447-1-1s.447-1 1-1h29.002c.553 0 1 .447 1 1s-.447 1-1 1z"/><path d="m43.996 41.5c-.553 0-1-.447-1-1v-5.999c0-.553.447-1 1-1s1 .447 1 1v5.999c0 .553-.447 1-1 1z"/><path d="m5 33.496c-.553 0-1-.447-1-1v-.987c0-.553.447-1 1-1s1 .447 1 1v.987c0 .553-.447 1-1 1z"/><path d="m6.002 30.509h-3.002c-.553 0-1-.447-1-1s.447-1 1-1h3.002c.553 0 1 .447 1 1s-.447 1-1 1z"/><path d="m6.002 35.496h-3.002c-.553 0-1-.447-1-1s.447-1 1-1h3.002c.553 0 1 .447 1 1s-.447 1-1 1z"/></svg>