<svg enable-background="new 0 0 512 512" viewBox="0 0 512 512" xmlns="http://www.w3.org/2000/svg"><path d="m493.137 277.558h-474.274c-5.953 0-10.779-4.826-10.779-10.779v-21.558c0-5.953 4.826-10.779 10.779-10.779h474.274c5.953 0 10.779 4.826 10.779 10.779v21.558c0 5.953-4.826 10.779-10.779 10.779z" fill="#939393"/><path d="m503.916 256v10.779c0 5.953-4.826 10.779-10.779 10.779h-474.274c-5.953 0-10.779-4.826-10.779-10.779v-10.779z" fill="#5b5b5b"/><path d="m169.768 126.653v258.695c0 11.906-9.651 21.558-21.558 21.558h-21.558c-11.906 0-21.558-9.651-21.558-21.558v-64.674c0 11.906-9.651 21.558-21.558 21.558h-21.557c-11.906 0-21.558-9.651-21.558-21.558v-129.348c0-11.906 9.651-21.558 21.558-21.558h21.558c11.906 0 21.558 9.651 21.558 21.558v-64.674c0-11.906 9.651-21.558 21.558-21.558h21.558c11.906.001 21.557 9.652 21.557 21.559zm280.253 43.115h-21.558c-11.906 0-21.558 9.651-21.558 21.558v-64.674c0-11.906-9.651-21.558-21.558-21.558h-21.558c-11.906 0-21.558 9.651-21.558 21.558v258.695c0 11.906 9.651 21.558 21.558 21.558h21.558c11.906 0 21.558-9.651 21.558-21.558v-64.674c0 11.906 9.651 21.558 21.558 21.558h21.558c11.906 0 21.558-9.651 21.558-21.558v-129.347c0-11.906-9.652-21.558-21.558-21.558z" fill="#004859"/><path d="m61.979 309.895c-11.906 0-21.558-9.651-21.558-21.558v-97.011c0-11.906 9.651-21.558 21.558-21.558h21.558v118.568c0 11.907-9.652 21.559-21.558 21.559zm86.232-21.558v-183.242h-21.558c-11.906 0-21.558 9.651-21.558 21.558v161.684c0 11.906 9.651 21.558 21.558 21.558 11.906 0 21.558-9.652 21.558-21.558zm237.136 0v-183.242h-21.558c-11.906 0-21.558 9.651-21.558 21.558v161.684c0 11.906 9.651 21.558 21.558 21.558 11.907 0 21.558-9.652 21.558-21.558zm64.674 0v-118.569h-21.558c-11.906 0-21.558 9.651-21.558 21.558v97.011c0 11.906 9.651 21.558 21.558 21.558 11.907 0 21.558-9.652 21.558-21.558z" fill="#007dbc"/><path d="m148.211 142.282v1.078c0 4.465-3.62 8.084-8.084 8.084-4.465 0-8.084-3.62-8.084-8.084v-1.078c0-4.465 3.62-8.084 8.084-8.084s8.084 3.619 8.084 8.084zm-8.085 19.402c-4.465 0-8.084 3.62-8.084 8.084v43.116c0 4.465 3.62 8.084 8.084 8.084 4.465 0 8.084-3.62 8.084-8.084v-43.116c.001-4.464-3.619-8.084-8.084-8.084zm-64.673 32.337c-4.465 0-8.084 3.62-8.084 8.084v1.078c0 4.465 3.62 8.084 8.084 8.084s8.084-3.62 8.084-8.084v-1.078c0-4.464-3.62-8.084-8.084-8.084zm0 27.486c-4.465 0-8.084 3.62-8.084 8.084v26.409c0 4.465 3.62 8.084 8.084 8.084s8.084-3.62 8.084-8.084v-26.408c0-4.465-3.62-8.085-8.084-8.085zm366.484-27.486c-4.465 0-8.084 3.62-8.084 8.084v1.078c0 4.465 3.62 8.084 8.084 8.084s8.084-3.62 8.084-8.084v-1.078c0-4.464-3.62-8.084-8.084-8.084zm-64.674-32.337c-4.465 0-8.084 3.62-8.084 8.084v43.116c0 4.465 3.62 8.084 8.084 8.084 4.465 0 8.084-3.62 8.084-8.084v-43.116c0-4.464-3.619-8.084-8.084-8.084zm0-27.486c-4.465 0-8.084 3.62-8.084 8.084v1.078c0 4.465 3.62 8.084 8.084 8.084 4.465 0 8.084-3.62 8.084-8.084v-1.078c0-4.465-3.619-8.084-8.084-8.084zm64.674 87.309c-4.465 0-8.084 3.62-8.084 8.084v26.409c0 4.465 3.62 8.084 8.084 8.084s8.084-3.62 8.084-8.084v-26.408c0-4.465-3.62-8.085-8.084-8.085z" fill="#fff"/><path d="m493.137 226.358h-13.474v-35.032c0-16.344-13.297-29.642-29.642-29.642h-21.558c-4.848 0-9.429 1.171-13.474 3.243v-38.275c0-16.344-13.297-29.642-29.642-29.642h-21.558c-16.345 0-29.642 13.298-29.642 29.642v99.705h-156.294v-99.705c0-16.344-13.297-29.642-29.642-29.642h-21.558c-16.345 0-29.642 13.298-29.642 29.642v38.275c-4.044-2.073-8.625-3.243-13.474-3.243h-21.558c-16.345 0-29.642 13.298-29.642 29.642v35.032h-13.474c-10.4 0-18.863 8.462-18.863 18.863v21.558c0 10.401 8.463 18.863 18.863 18.863h13.474v35.032c0 16.344 13.297 29.642 29.642 29.642h21.558c4.848 0 9.429-1.171 13.474-3.243v38.275c0 4.851 1.178 9.428 3.253 13.474h-22.117c-4.465 0-8.084 3.618-8.084 8.084s3.62 8.084 8.084 8.084h355.705c4.465 0 8.084-3.618 8.084-8.084s-3.62-8.084-8.084-8.084h-22.116c2.074-4.045 3.253-8.623 3.253-13.474v-38.275c4.044 2.073 8.625 3.243 13.474 3.243h21.558c16.345 0 29.642-13.298 29.642-29.642v-35.032h13.474c10.401 0 18.863-8.463 18.863-18.863v-21.558c0-10.401-8.463-18.863-18.863-18.863zm-315.284 158.989v-99.705h156.295v99.705c0 4.851 1.178 9.428 3.253 13.474h-162.801c2.074-4.045 3.253-8.623 3.253-13.474zm156.294-142.821v26.947h-156.294v-26.947zm-315.284 26.948c-1.485 0-2.695-1.208-2.695-2.695v-21.558c0-1.486 1.209-2.695 2.695-2.695h13.474v26.947h-13.474zm64.674 64.673h-21.558c-7.43 0-13.474-6.044-13.474-13.474v-129.347c0-7.43 6.044-13.474 13.474-13.474h21.558c7.43 0 13.474 6.044 13.474 13.474v129.347c0 7.431-6.044 13.474-13.474 13.474zm29.642 51.2v-64.674-129.347-64.674c0-7.43 6.044-13.474 13.474-13.474h21.558c7.43 0 13.474 6.044 13.474 13.474v258.695c0 7.43-6.044 13.474-13.474 13.474h-21.558c-7.43 0-13.474-6.044-13.474-13.474zm250.61 13.474c-7.43 0-13.474-6.044-13.474-13.474v-258.694c0-7.43 6.044-13.474 13.474-13.474h21.558c7.43 0 13.474 6.044 13.474 13.474v64.674 129.347 64.674c0 7.43-6.044 13.474-13.474 13.474h-21.558zm99.706-78.147c0 7.43-6.044 13.474-13.474 13.474h-21.558c-7.43 0-13.474-6.044-13.474-13.474v-129.348c0-7.43 6.044-13.474 13.474-13.474h21.558c7.43 0 13.474 6.044 13.474 13.474zm32.337-53.895c0 1.486-1.209 2.695-2.695 2.695h-13.474v-26.947h13.474c1.485 0 2.695 1.208 2.695 2.695zm-478.586 140.126c0 4.466-3.62 8.084-8.084 8.084h-1.078c-4.465 0-8.084-3.618-8.084-8.084s3.62-8.084 8.084-8.084h1.078c4.465 0 8.084 3.619 8.084 8.084zm42.038 0c0 4.466-3.62 8.084-8.084 8.084h-1.078c-4.465 0-8.084-3.618-8.084-8.084s3.62-8.084 8.084-8.084h1.078c4.465 0 8.084 3.619 8.084 8.084zm410.678 0c0 4.466-3.62 8.084-8.084 8.084h-1.078c-4.465 0-8.084-3.618-8.084-8.084s3.62-8.084 8.084-8.084h1.078c4.464 0 8.084 3.619 8.084 8.084zm42.038 0c0 4.466-3.62 8.084-8.084 8.084h-1.078c-4.465 0-8.084-3.618-8.084-8.084s3.62-8.084 8.084-8.084h1.078c4.464 0 8.084 3.619 8.084 8.084z"/></svg>