<svg viewBox="0 0 412.48 405.52" xmlns="http://www.w3.org/2000/svg"><path d="m84.81 181.71h244.07v44.65h-244.07z" fill="#e7e7e7" transform="matrix(.71788333 .69616343 -.69616343 .71788333 200.38 -86.44)"/><path d="m307.18 271.12-31.08 32.05-65-63c12.54 9.9 25.88 20.1 40.28 23.21 7.13 1.54 14.9.82 18.12-4.52 2.65-4.4 1.48-11-1.62-16.55s-7.88-10.31-12.63-14.76c-37.8-35.07-85.21-61-114.5-102.73a95.34 95.34 0 0 1 -11.35-21l2.55-2.63z" fill="#ced0d0"/><path d="m279.05 313.5-183.84-178.26 39.43-40.67 183.84 178.26zm-166.87-178.5 166.61 161.53 22.73-23.44-166.62-161.55z" fill="#314e5d"/><path d="m288 268.15-26.73-25.92c-2.77-2.69-7 1.55-4.24 4.24l26.73 25.92c2.77 2.69 7-1.55 4.24-4.24z" fill="#fff"/><path d="m250.57 231.86-13.66-13.25c-2.77-2.69-7 1.55-4.24 4.24l13.66 13.25c2.77 2.69 7-1.55 4.24-4.24z" fill="#fff"/><rect fill="#e7e7e7" height="45.64" rx="14.67" transform="matrix(.71788333 .69616343 -.69616343 .71788333 40.8 -15.86)" width="29.34" x="25.3" y="19.59"/><path d="m61.08 33.91a14.64 14.64 0 0 1 -2.13 7.86l-7.61 7.85a14.67 14.67 0 0 0 -23.07-17.85l7.61-7.85a14.67 14.67 0 0 1 25.2 10z" fill="#fff"/><path d="m46.41 56.32-5.41 5.54a14.67 14.67 0 0 1 -18.54-22.5l11.35-11.7a14.57 14.57 0 0 1 5.29-3.49l-7.73 8a14.67 14.67 0 0 0 15 24.19z" fill="#ced0d0"/><path d="m33.62 67.66a20.53 20.53 0 0 1 -14.38-5.83 20.67 20.67 0 0 1 -.45-29.23l11.35-11.7a20.67 20.67 0 0 1 29.68 28.77l-11.35 11.7a20.53 20.53 0 0 1 -14.52 6.28zm11.38-41.04a8.64 8.64 0 0 0 -6.23 2.63l-11.36 11.7a8.67 8.67 0 0 0 .19 12.26 8.61 8.61 0 0 0 6 2.45h.14a8.62 8.62 0 0 0 6.12-2.66l11.34-11.68a8.67 8.67 0 0 0 -6.2-14.7z" fill="#314e5d"/><rect fill="#e7e7e7" height="45.64" rx="14.67" transform="matrix(.71788333 .69616343 -.69616343 .71788333 360.88 -157.19)" width="29.34" x="359.73" y="343.87"/><path d="m394.91 357.61a14.64 14.64 0 0 1 -2.13 7.86l-7.61 7.85a14.67 14.67 0 0 0 -23.07-17.84l7.61-7.85a14.67 14.67 0 0 1 25.2 10z" fill="#fff"/><path d="m380.25 380-5.38 5.54a14.67 14.67 0 0 1 -18.54-22.5l11.35-11.7a14.57 14.57 0 0 1 5.29-3.49l-7.73 8a14.67 14.67 0 0 0 15 24.19z" fill="#ced0d0"/><path d="m367.46 391.35a20.6 20.6 0 0 1 -14.39-5.82 20.69 20.69 0 0 1 -.45-29.23l11.38-11.7a20.67 20.67 0 1 1 29.68 28.78l-11.35 11.7a20.61 20.61 0 0 1 -14.87 6.27zm-6-14.44a8.68 8.68 0 0 0 12.26-.19l11.28-11.72a8.67 8.67 0 0 0 -.19-12.26 8.72 8.72 0 0 0 -6.17-2.45 8.62 8.62 0 0 0 -6.09 2.63l-11.35 11.7a8.68 8.68 0 0 0 .19 12.26z" fill="#314e5d"/><rect fill="#747679" height="205.26" rx="26.64" transform="matrix(.71788333 .69616343 -.69616343 .71788333 100.03 -41.86)" width="53.29" x="75.02" y="-.13"/><rect fill="#747679" height="136.84" rx="26.64" transform="matrix(.71788333 .69616343 -.69616343 .71788333 62.96 -25.49)" width="53.29" x="36.29" y="-3.48"/><path d="m120 30.13a26.54 26.54 0 0 1 -7.51 19l-13.78 14.21a26.64 26.64 0 1 0 -38.26-37.09l13.83-14.25a26.64 26.64 0 0 1 45.72 18.13z" fill="#87898d"/><path d="m175.08 62.08-13.82 14.26a26.64 26.64 0 1 0 -38.26-37.1l13.83-14.24a26.64 26.64 0 1 1 38.25 37.09z" fill="#87898d"/><g fill="#595a5b"><path d="m130.47 34.52a26.63 26.63 0 0 1 -5.47 8.23l-58.16 60a26.63 26.63 0 0 1 -8.06 5.7z"/><path d="m57.24 109.08-6.57 6.78a26.64 26.64 0 0 1 -38.25-37.1l14.67-15.13a26.64 26.64 0 0 0 4.58-3.78l6.57-6.78a26.6 26.6 0 0 0 5-2.56l-14.64 15.13a26.65 26.65 0 0 0 28.64 43.44z"/><path d="m72.17 171.18-6.58 6.82a26.64 26.64 0 1 1 -38.25-37.09l31.45-32.44a26.63 26.63 0 0 0 8.06-5.7l58.16-60a26.63 26.63 0 0 0 5.45-8.23l2.66-2.74a26.39 26.39 0 0 1 9.6-6.33l-99.2 102.28a26.64 26.64 0 0 0 28.66 43.43z"/></g><path d="m47.55 187.35a32.53 32.53 0 0 1 -22.72-9.19 32.68 32.68 0 0 1 -.71-46.16l105.79-109.1a32.64 32.64 0 0 1 46.87 45.45l-105.78 109.1a32.55 32.55 0 0 1 -23.45 9.9zm-14.36-17.8a20.67 20.67 0 0 0 29.19-.45l105.79-109.1a20.64 20.64 0 0 0 -29.64-28.74l-105.79 109.09a20.67 20.67 0 0 0 .45 29.19z" fill="#314e5d"/><path d="m32.63 125.26a32.64 32.64 0 0 1 -23.42-55.37l58.16-60a32.64 32.64 0 1 1 46.87 45.45l-58.16 60a32.43 32.43 0 0 1 -22.93 9.92zm58.18-113.26a20.58 20.58 0 0 0 -14.81 6.26l-58.16 60a20.64 20.64 0 0 0 .45 29.19 20.64 20.64 0 0 0 29.18-.45l58.16-60a20.63 20.63 0 0 0 -14.82-35z" fill="#314e5d"/><rect fill="#747679" height="205.26" rx="26.64" transform="matrix(-.71788333 -.69616343 .69616343 -.71788333 320.24 738.17)" width="53.29" x="283.04" y="201.57"/><rect fill="#747679" height="136.84" rx="26.64" transform="matrix(-.71788333 -.69616343 .69616343 -.71788333 360.63 829.64)" width="53.29" x="321.76" y="273.33"/><path d="m381.44 283.59a26.54 26.54 0 0 0 -18.72 8.09l-13.82 14.26a26.64 26.64 0 1 1 38.26 37.06l13.84-14.22a26.64 26.64 0 0 0 -19.54-45.19z" fill="#87898d"/><path d="m347.81 229.57-13.81 14.26a26.64 26.64 0 1 1 38.25 37.09l13.82-14.26a26.64 26.64 0 1 0 -38.25-37.09z" fill="#87898d"/><path d="m376.74 273.32a26.63 26.63 0 0 0 -8.06 5.7l-58.16 60a26.63 26.63 0 0 0 -5.45 8.23z" fill="#595a5b"/><path d="m304.47 348.8-6.57 6.78a26.64 26.64 0 0 0 38.25 37.09l14.67-15.13a26.64 26.64 0 0 1 3.64-4.69l6.57-6.78a26.6 26.6 0 0 1 2.41-5.11l-14.67 15.13a26.65 26.65 0 0 1 -44.3-27.29z" fill="#595a5b"/><path d="m241.94 335.79-6.58 6.79a26.64 26.64 0 1 0 38.25 37.09l31.45-32.44a26.63 26.63 0 0 1 5.45-8.23l58.16-60a26.63 26.63 0 0 1 8.06-5.7l2.66-2.74a26.39 26.39 0 0 0 6-9.79l-99.16 102.32a26.64 26.64 0 0 1 -44.29-27.3z" fill="#595a5b"/><path d="m259.14 392.51a32.53 32.53 0 0 1 -22.72-9.19 32.68 32.68 0 0 1 -.71-46.16l105.79-109.1a32.64 32.64 0 1 1 46.87 45.45l-105.79 109.1a32.55 32.55 0 0 1 -23.44 9.9zm-14.37-17.81a20.67 20.67 0 0 0 29.19-.45l105.79-109.1a20.64 20.64 0 0 0 -29.64-28.74l-105.79 109.1a20.67 20.67 0 0 0 .45 29.19z" fill="#314e5d"/><path d="m321.67 405.52a32.64 32.64 0 0 1 -23.42-55.37l58.16-60a32.64 32.64 0 0 1 46.87 45.45l-58.16 60a32.43 32.43 0 0 1 -22.93 9.92zm58.18-113.26a20.58 20.58 0 0 0 -14.85 6.27l-58.16 60a20.64 20.64 0 0 0 .45 29.19 20.64 20.64 0 0 0 29.19-.45l58.16-60a20.63 20.63 0 0 0 -14.82-35z" fill="#314e5d"/><path d="m324.47 305.23 25.92-26.73c2.69-2.77-1.55-7-4.24-4.24l-25.92 26.74c-2.69 2.77 1.55 7 4.24 4.24z" fill="#fff"/><path d="m360.76 267.81 13.24-13.66c2.69-2.77-1.55-7-4.24-4.24l-13.25 13.66c-2.69 2.77 1.55 7 4.24 4.24z" fill="#fff"/></svg>